<?xml version="1.0" encoding="UTF-8" standalone="no" ?>
<!DOCTYPE svg PUBLIC "-//W3C//DTD SVG 1.1//EN" "http://www.w3.org/Graphics/SVG/1.1/DTD/svg11.dtd">
<svg xmlns="http://www.w3.org/2000/svg" xmlns:xlink="http://www.w3.org/1999/xlink" version="1.1" width="1280" height="1024" viewBox="0 0 1280 1024" xml:space="preserve">
<desc>Created with Fabric.js 4.4.0</desc>
<defs>
</defs>
<g transform="matrix(1 0 0 1 640 512)" id="background-logo"  >
<rect style="stroke: none; stroke-width: 0; stroke-dasharray: none; stroke-linecap: butt; stroke-dashoffset: 0; stroke-linejoin: miter; stroke-miterlimit: 4; fill: rgb(0,0,0); fill-rule: nonzero; opacity: 1;"  paint-order="stroke"  x="-640" y="-512" rx="0" ry="0" width="1280" height="1024" />
</g>
<g transform="matrix(1.9211538461538462 0 0 1.9211538461538462 631.4644565960356 512.6828434723172)" id="logo-logo"  >
<g style=""  paint-order="stroke"   >
		<g transform="matrix(0.7378645669724239 0 0 -0.737864566972424 0 -2.842171e-14)"  >
<linearGradient id="SVGID_1_1_83059" gradientUnits="userSpaceOnUse" gradientTransform="matrix(1 0 0 1 360 360)"  x1="0" y1="0" x2="0" y2="360">
<stop offset="0%" style="stop-color:rgb(113,23,234);stop-opacity: 1"/>
<stop offset="100%" style="stop-color:rgb(234,96,96);stop-opacity: 1"/>
</linearGradient>
<path style="stroke: none; stroke-width: 1; stroke-dasharray: none; stroke-linecap: butt; stroke-dashoffset: 0; stroke-linejoin: miter; stroke-miterlimit: 4; fill: url(#SVGID_1_1_83059); fill-rule: nonzero; opacity: 1;"  paint-order="stroke"  transform=" translate(-540, -540)" d="M 633.744 705.025 L 705.0250000000001 705.025 L 705.0250000000001 633.744 L 633.744 633.744 Z M 626.256 550.589 L 615.667 540 L 626.2560000000001 529.411 L 694.4360000000001 461.23099999999994 L 629.3570000000002 461.23099999999994 L 593.7170000000002 496.87199999999996 L 590.6150000000002 499.97399999999993 L 590.6150000000002 504.3589999999999 L 590.6150000000002 514.948 L 590.6150000000002 565.052 L 590.6150000000002 575.6410000000001 L 590.6150000000002 580.027 L 593.7170000000002 583.128 L 629.3570000000002 618.769 L 694.4360000000001 618.769 z M 705.025 374.975 L 633.7439999999999 374.975 L 633.7439999999999 446.25600000000003 L 705.0249999999999 446.25600000000003 z M 618.769 385.564 L 550.5889999999999 453.744 L 539.9999999999999 464.333 L 529.4109999999998 453.744 L 461.2309999999998 385.564 L 461.2309999999998 450.64300000000003 L 496.87199999999984 486.283 L 499.97299999999984 489.385 L 504.35899999999987 489.385 L 514.9479999999999 489.385 L 565.0519999999999 489.385 L 575.641 489.385 L 580.026 489.385 L 583.1279999999999 486.283 L 618.7689999999999 450.64300000000003 z M 446.256 374.975 L 374.97499999999997 374.975 L 374.97499999999997 446.25600000000003 L 446.256 446.25600000000003 z M 453.74399999999997 529.4110000000001 L 464.33299999999997 540.0000000000001 L 453.74399999999997 550.5890000000002 L 385.56399999999996 618.7690000000002 L 450.64199999999994 618.7690000000002 L 486.28299999999996 583.1280000000003 L 489.38399999999996 580.0270000000003 L 489.38399999999996 575.6410000000003 L 489.38399999999996 565.0520000000002 L 489.38399999999996 514.9480000000002 L 489.38399999999996 504.3590000000002 L 489.38399999999996 499.9740000000002 L 486.28299999999996 496.87200000000024 L 450.64199999999994 461.2310000000002 L 385.56399999999996 461.2310000000002 z M 374.97499999999997 705.0250000000001 L 446.256 705.0250000000001 L 446.256 633.744 L 374.975 633.744 Z M 575.641 504.359 L 504.36 504.359 L 504.36 575.64 L 575.6410000000001 575.64 z M 461.231 694.4359999999999 L 529.4110000000001 626.2559999999999 L 540.0000000000001 615.6669999999998 L 550.5890000000002 626.2559999999999 L 618.7690000000002 694.4359999999999 L 618.7690000000002 629.358 L 583.1280000000003 593.717 L 580.0260000000003 590.616 L 575.6410000000003 590.616 L 565.0520000000002 590.616 L 514.9480000000002 590.616 L 504.3590000000002 590.616 L 499.9730000000002 590.616 L 496.8720000000002 593.717 L 461.23100000000017 629.358 z M 633.744 720 L 623.154 720 L 618.769 715.614 L 540 636.845 L 461.231 715.614 L 456.845 720 L 446.256 720 L 360 720 L 360 633.744 L 360 623.155 L 364.386 618.769 L 443.155 540 L 364.386 461.231 L 360 456.846 L 360 446.256 L 360 360 L 446.256 360 L 456.84499999999997 360 L 461.231 364.386 L 540 443.154 L 618.769 364.386 L 623.154 360 L 633.744 360 L 720 360 L 720 446.256 L 720 456.84599999999995 L 715.614 461.23099999999994 L 636.846 540 L 715.614 618.769 L 720 623.155 L 720 633.744 L 720 720 Z" stroke-linecap="round" />
</g>
</g>
</g>
</svg>